<svg id="Gruppe_24" data-name="Gruppe 24" xmlns="http://www.w3.org/2000/svg" xmlns:xlink="http://www.w3.org/1999/xlink" width="108.399" height="108.398" viewBox="0 0 108.399 108.398">
  <defs>
    <linearGradient id="linear-gradient" x1="0.5" y1="0.27" x2="0.5" y2="0.926" gradientUnits="objectBoundingBox">
      <stop offset="0" stop-opacity="0"/>
      <stop offset="1" stop-opacity="0.2"/>
      <stop offset="1" stop-opacity="0.502"/>
    </linearGradient>
  </defs>
  <g id="twitter" transform="translate(0 0)">
    <path id="Pfad_57" data-name="Pfad 57" d="M89.01,106.543a327.414,327.414,0,0,1-69.622,0A19.738,19.738,0,0,1,1.856,89.009a327.4,327.4,0,0,1,0-69.621A19.738,19.738,0,0,1,19.389,1.856a327.4,327.4,0,0,1,69.621,0,19.738,19.738,0,0,1,17.534,17.533,327.4,327.4,0,0,1,0,69.621A19.737,19.737,0,0,1,89.01,106.543Zm0,0" fill="#ba202e"/>
    <path id="Pfad_58" data-name="Pfad 58" d="M123.377,46.039A17.514,17.514,0,0,0,107.819,30.48a290.641,290.641,0,0,0-61.78,0A17.517,17.517,0,0,0,30.48,46.039a290.632,290.632,0,0,0,0,61.779,17.515,17.515,0,0,0,15.559,15.559,290.527,290.527,0,0,0,61.779,0,17.514,17.514,0,0,0,15.559-15.559A290.525,290.525,0,0,0,123.377,46.039Zm0,0" transform="translate(-22.729 -22.729)" fill="#d42428"/>
    <path id="Pfad_59" data-name="Pfad 59" d="M7.672,409.8q.112,1.124.232,2.248a19.738,19.738,0,0,0,17.534,17.533,327.413,327.413,0,0,0,69.621,0,19.737,19.737,0,0,0,17.533-17.533q.12-1.124.232-2.248Zm0,0" transform="translate(-6.048 -323.042)" fill="url(#linear-gradient)"/>
    <path id="Pfad_60" data-name="Pfad 60" d="M197.392,174.949l-30.279-26.128c-2.522,1.441-7.361,7.059-7.361,7.059l-29.64,1.872-7.467,9.357s.914,22.552-6.764,21.932l-2.893,1.932,35.192,34.689c9.845-.605,18.338-.572,29.9-1.806a19.738,19.738,0,0,0,17.534-17.533C196.983,193.463,197.392,174.949,197.392,174.949Z" transform="translate(-89.067 -117.313)" opacity="0.2"/>
  </g>
  <path id="Pfad_66" data-name="Pfad 66" d="M185.265,164.966a9.691,9.691,0,0,0-9.689-9.694H130.119a9.691,9.691,0,0,0-9.687,9.694V190.96a9.69,9.69,0,0,0,9.687,9.694h45.456a9.691,9.691,0,0,0,9.689-9.694V164.966Zm-38.9,23.963V164.514l18.515,12.208Z" transform="translate(-98.712 -123.666)" fill="#fff"/>
</svg>
