<svg id="Gruppe_25" data-name="Gruppe 25" xmlns="http://www.w3.org/2000/svg" xmlns:xlink="http://www.w3.org/1999/xlink" width="108.399" height="108.398" viewBox="0 0 108.399 108.398">
  <defs>
    <linearGradient id="linear-gradient" x1="0.5" y1="0.27" x2="0.5" y2="0.926" gradientUnits="objectBoundingBox">
      <stop offset="0" stop-opacity="0"/>
      <stop offset="1" stop-opacity="0.2"/>
      <stop offset="1" stop-opacity="0.502"/>
    </linearGradient>
  </defs>
  <g id="twitter" transform="translate(0 0)">
    <path id="Pfad_57" data-name="Pfad 57" d="M89.01,106.543a327.414,327.414,0,0,1-69.622,0A19.738,19.738,0,0,1,1.856,89.009a327.4,327.4,0,0,1,0-69.621A19.738,19.738,0,0,1,19.389,1.856a327.4,327.4,0,0,1,69.621,0,19.738,19.738,0,0,1,17.534,17.533,327.4,327.4,0,0,1,0,69.621A19.737,19.737,0,0,1,89.01,106.543Zm0,0" fill="#687ccb"/>
    <path id="Pfad_58" data-name="Pfad 58" d="M123.377,46.039A17.514,17.514,0,0,0,107.819,30.48a290.641,290.641,0,0,0-61.78,0A17.517,17.517,0,0,0,30.48,46.039a290.632,290.632,0,0,0,0,61.779,17.515,17.515,0,0,0,15.559,15.559,290.527,290.527,0,0,0,61.779,0,17.514,17.514,0,0,0,15.559-15.559A290.525,290.525,0,0,0,123.377,46.039Zm0,0" transform="translate(-22.729 -22.729)" fill="#8198f2"/>
    <path id="Pfad_59" data-name="Pfad 59" d="M7.672,409.8q.112,1.124.232,2.248a19.738,19.738,0,0,0,17.534,17.533,327.413,327.413,0,0,0,69.621,0,19.737,19.737,0,0,0,17.533-17.533q.12-1.124.232-2.248Zm0,0" transform="translate(-6.048 -323.042)" fill="url(#linear-gradient)"/>
    <path id="Pfad_60" data-name="Pfad 60" d="M197.392,174.949l-30.279-26.128c-2.522,1.441-7.361,7.059-7.361,7.059l-29.64,1.872-7.467,9.357s.914,22.552-6.764,21.932l-2.893,1.932,35.192,34.689c9.845-.605,18.338-.572,29.9-1.806a19.738,19.738,0,0,0,17.534-17.533C196.983,193.463,197.392,174.949,197.392,174.949Z" transform="translate(-89.067 -117.313)" opacity="0.05"/>
  </g>
  <path id="Ausschluss_1" data-name="Ausschluss 1" d="M25.838,51.07h0a72.73,72.73,0,0,1-20.8-3.949,7.6,7.6,0,0,1-5.03-7.467A148.553,148.553,0,0,1,5.321,7.277,7.656,7.656,0,0,1,7.283,3.922a7.791,7.791,0,0,1,3.373-1.977A72.123,72.123,0,0,1,27.13,0,30.06,30.06,0,0,0,12.919,7.661c.065-.017.253-.087.536-.192A51.279,51.279,0,0,1,30.97,3.83h.037a56.05,56.05,0,0,1,18.124,3.8A29.918,29.918,0,0,0,34.883,0,72.119,72.119,0,0,1,51.357,1.94a7.786,7.786,0,0,1,3.374,1.977,7.657,7.657,0,0,1,1.963,3.356,148.656,148.656,0,0,1,5.314,32.382,7.606,7.606,0,0,1-5.031,7.467,72.7,72.7,0,0,1-20.8,3.948l-1.293-6.383a24.164,24.164,0,0,0,15.5-6.384c-.057.015-.221.07-.47.153-5.038,1.678-12.407,3.678-18.909,3.678-3.589,0-9.783-.638-18.91-3.678-.249-.083-.414-.138-.47-.153a24.165,24.165,0,0,0,15.5,6.384l-1.292,6.383ZM43.927,20.428a6.384,6.384,0,1,0,6.459,6.383A6.429,6.429,0,0,0,43.927,20.428Zm-25.841,0a6.384,6.384,0,1,0,6.46,6.383A6.429,6.429,0,0,0,18.086,20.428Z" transform="translate(22.467 28.664)" fill="#fdfef9"/>
</svg>
