<svg id="Ebene_1" data-name="Ebene 1" xmlns="http://www.w3.org/2000/svg" viewBox="0 0 319.4 319.74"><defs><style>.cls-1{fill:#73fcff;}.cls-2{fill:#af8766;}</style></defs><g id="Ebene_2" data-name="Ebene 2"><g id="Ebene_1-2" data-name="Ebene 1-2"><rect class="cls-1" width="319.4" height="319.74" rx="59.7"/><path class="cls-2" d="M266,120.67v10A39.18,39.18,0,0,0,210.64,186H197.27a5,5,0,0,1-5-5V120.67h-13l-8.71,13.06-4.36,6.54-4.35,6.53a2.59,2.59,0,0,1-3.61.69,2.66,2.66,0,0,1-.69-.69h0l-4.36-6.53-4.3-6.54-8.71-13.06H127V181a5,5,0,0,1-5,5H108.81a39.21,39.21,0,1,0-58.42,0h-10v13.07H66.53V182.49a26.13,26.13,0,1,1,26.14,0v16.58H127A13.07,13.07,0,0,0,140.05,186h0V143.49l4.36,6.54,8.71,13.06,4.4,6.22a2.6,2.6,0,0,0,3.6.69h0a2.48,2.48,0,0,0,.69-.68l4.4-6.22L174.93,150l4.35-6.54V186a13.18,13.18,0,0,0,1.57,6.23c.21.36.42.73.66,1.07a14.1,14.1,0,0,0,1.6,1.94,13.16,13.16,0,0,0,3,2.25,11.78,11.78,0,0,0,2.34,1,12.84,12.84,0,0,0,3.89.6h47.5a39.32,39.32,0,0,0,13.07-2.23,38.27,38.27,0,0,0,6.54-3V177.15a26.29,26.29,0,0,1-6.54,5.38,25.76,25.76,0,0,1-13.07,3.5h0a26.14,26.14,0,1,1,22.59-39.2,25.76,25.76,0,0,1,3.5,13.07v39.2H279V120.7Z"/></g></g></svg>