<svg xmlns="http://www.w3.org/2000/svg" viewBox="0 0 695.69 187.01"><defs><style>.cls-1{fill:#193f43;}</style></defs><title>dark</title><g id="Ebene_2" data-name="Ebene 2"><g id="Ebene_1-2" data-name="Ebene 1"><path class="cls-1" d="M298.92,22.21q0,10.73-5.27,16.31T278.24,44.1q-10,0-15.33-5.61t-5.34-16.34q0-10.6,5.31-16.21T278.3.35q10.15,0,15.38,5.55T298.92,22.21Zm-29.25,0q0,12.33,8.57,12.33,4.36,0,6.47-3c1.41-2,2.11-5.11,2.11-9.33s-.71-7.38-2.14-9.41a7.29,7.29,0,0,0-6.38-3Q269.66,9.77,269.67,22.21Z"/><path class="cls-1" d="M337.44,14.53q0,7.13-4.2,11T321.3,29.42h-3.23v14.1H306.59V1H321.3q8.06,0,12.1,3.52T337.44,14.53Zm-19.37,5.53h2.1a5.72,5.72,0,0,0,4.11-1.46,5.24,5.24,0,0,0,1.53-4q0-4.3-4.77-4.3h-3Z"/><path class="cls-1" d="M369.45,43.52H344.21V1h25.24v9.22H355.7v6.69h12.73v9.21H355.7v8h13.75Z"/><path class="cls-1" d="M417.36,43.52H402.3L386.78,13.57h-.27q.56,7.07.56,10.79V43.52H376.89V1h15l15.47,29.54h.18c-.28-4.28-.41-7.72-.41-10.32V1h10.23Z"/><path class="cls-1" d="M277.66,115,269,84.36h-.26q.6,7.81.61,12.15V115H259.14V72.47h15.29l8.87,30.17h.23l8.7-30.17h15.32V115H297V96.34c0-1,0-2,0-3.23s.16-4.08.39-8.69h-.26L288.59,115Z"/><path class="cls-1" d="M342.79,115l-2.1-8H326.88l-2.15,8H312.11L326,72.29h15.33l14,42.68Zm-4.48-17.38-1.83-7q-.64-2.33-1.56-6t-1.2-5.29c-.18,1-.52,2.62-1,4.88s-1.65,6.74-3.41,13.41Z"/><path class="cls-1" d="M371.43,99.51V115H359.94V72.47h13.93q17.33,0,17.33,12.56,0,7.38-7.21,11.42L396.37,115h-13l-9-15.46Zm0-8.64h2.15q6,0,6-5.32,0-4.39-5.91-4.39h-2.26Z"/><path class="cls-1" d="M436.55,115h-13l-8.4-16.25-3.4,2V115H400.24V72.47h11.54V90.93a49.5,49.5,0,0,1,3.52-5.44l8.92-13h12.56l-13.4,19Z"/><path class="cls-1" d="M466.38,115H441.15V72.47h25.23v9.21H452.63v6.69h12.73v9.22H452.63v8h13.75Z"/><path class="cls-1" d="M492.58,115H481.09V81.86H470.71V72.47h32.22v9.39H492.58Z"/><path class="cls-1" d="M539.85,86q0,7.13-4.2,11t-11.93,3.88h-3.23V115H509V72.47h14.72c5.36,0,9.4,1.17,12.09,3.51S539.85,81.66,539.85,86Zm-19.36,5.52h2.09a5.72,5.72,0,0,0,4.12-1.45,5.31,5.31,0,0,0,1.52-4c0-2.86-1.59-4.3-4.77-4.3h-3Z"/><path class="cls-1" d="M546.63,115V72.47h11.48V105.7h16.37V115Z"/><path class="cls-1" d="M607.36,115l-2.09-8H591.46l-2.15,8H576.69l13.87-42.68h15.32l14,42.68Zm-4.48-17.38-1.83-7q-.63-2.33-1.55-6c-.61-2.46-1-4.22-1.21-5.29-.17,1-.52,2.62-1,4.88s-1.65,6.74-3.42,13.41Z"/><path class="cls-1" d="M643.44,81.28a7.3,7.3,0,0,0-6.39,3.35c-1.54,2.24-2.3,5.33-2.3,9.26q0,12.27,9.33,12.27a19.29,19.29,0,0,0,5.47-.78,55.6,55.6,0,0,0,5.32-1.89v9.71a29.46,29.46,0,0,1-12,2.35q-9.62,0-14.75-5.58T623,93.84a25.77,25.77,0,0,1,2.48-11.61,17.86,17.86,0,0,1,7.15-7.69,21.63,21.63,0,0,1,11-2.68,30.2,30.2,0,0,1,13.17,3l-3.52,9A41.81,41.81,0,0,0,648.5,82,16.55,16.55,0,0,0,643.44,81.28Z"/><path class="cls-1" d="M688.39,115H663.15V72.47h25.24v9.21H674.64v6.69h12.73v9.22H674.64v8h13.75Z"/><path class="cls-1" d="M285.22,186.42l-2.09-8H269.32l-2.15,8H254.55l13.87-42.68h15.32l14,42.68ZM280.74,169l-1.83-7q-.63-2.33-1.55-6c-.61-2.46-1-4.22-1.21-5.29-.17,1-.52,2.62-1,4.89s-1.65,6.73-3.42,13.4Z"/><path class="cls-1" d="M333.22,157.44q0,7.13-4.2,11t-11.93,3.88h-3.23v14.1H302.37v-42.5h14.72q8.06,0,12.09,3.52T333.22,157.44ZM313.86,163H316a5.72,5.72,0,0,0,4.12-1.45,5.31,5.31,0,0,0,1.52-4q0-4.31-4.77-4.31h-3Z"/><path class="cls-1" d="M370.84,157.44q0,7.13-4.2,11t-11.93,3.88h-3.23v14.1H340v-42.5h14.71q8.06,0,12.09,3.52T370.84,157.44ZM351.48,163h2.09a5.72,5.72,0,0,0,4.12-1.45,5.27,5.27,0,0,0,1.52-4q0-4.31-4.76-4.31h-3Z"/><path class="cls-1" d="M377.62,186.42v-42.5H389.1v33.23h16.37v9.27Z"/><path class="cls-1" d="M412.27,186.42v-42.5h11.55v42.5Z"/><path class="cls-1" d="M451.93,152.73a7.31,7.31,0,0,0-6.39,3.36c-1.54,2.24-2.3,5.32-2.3,9.26q0,12.27,9.33,12.27a19.3,19.3,0,0,0,5.47-.79,53.89,53.89,0,0,0,5.32-1.89v9.71a29.46,29.46,0,0,1-12,2.36q-9.61,0-14.75-5.59t-5.14-16.13a25.69,25.69,0,0,1,2.49-11.6,17.75,17.75,0,0,1,7.15-7.69,21.63,21.63,0,0,1,11-2.69,30.34,30.34,0,0,1,13.17,3l-3.52,9a40.08,40.08,0,0,0-4.71-1.87A16.6,16.6,0,0,0,451.93,152.73Z"/><path class="cls-1" d="M497.72,186.42l-2.09-8H481.82l-2.15,8H467.05l13.87-42.68h15.32l14,42.68ZM493.25,169l-1.84-7q-.63-2.33-1.55-6t-1.21-5.29c-.17,1-.52,2.62-1,4.89S486,162.37,484.2,169Z"/><path class="cls-1" d="M533.63,186.42H522.15V153.31H511.77v-9.39H544v9.39H533.63Z"/><path class="cls-1" d="M550.06,186.42v-42.5H561.6v42.5Z"/><path class="cls-1" d="M610.56,165.11q0,10.74-5.26,16.31T589.89,187q-10,0-15.34-5.61t-5.33-16.34q0-10.62,5.3-16.21t15.43-5.6q10.14,0,15.38,5.55T610.56,165.11Zm-29.25,0q0,12.33,8.58,12.33a7.39,7.39,0,0,0,6.47-3q2.1-3,2.1-9.34c0-4.24-.71-7.38-2.13-9.4a7.28,7.28,0,0,0-6.38-3Q581.31,152.67,581.31,165.11Z"/><path class="cls-1" d="M658.71,186.42H643.65l-15.53-29.94h-.26q.55,7.07.55,10.79v19.15H618.24v-42.5h15l15.47,29.54h.17q-.4-6.44-.41-10.32V143.92h10.24Z"/><path class="cls-1" d="M695.69,173.52a12.54,12.54,0,0,1-2,7,13.15,13.15,0,0,1-5.78,4.77A21.53,21.53,0,0,1,679,187a35.55,35.55,0,0,1-7.12-.6,26.43,26.43,0,0,1-6-2.08V174.1a34.31,34.31,0,0,0,6.83,2.63,25.37,25.37,0,0,0,6.51.94,6.32,6.32,0,0,0,3.75-.88,2.71,2.71,0,0,0,1.19-2.29,2.48,2.48,0,0,0-.48-1.52,5.39,5.39,0,0,0-1.54-1.32,61.93,61.93,0,0,0-5.65-2.74,27.4,27.4,0,0,1-6.24-3.66,11.31,11.31,0,0,1-3.08-4.07,13.48,13.48,0,0,1-1-5.44,10.9,10.9,0,0,1,4.27-9.16q4.28-3.28,11.75-3.28a33.05,33.05,0,0,1,13.46,3.05l-3.52,8.87a25.48,25.48,0,0,0-10.29-2.73,5.41,5.41,0,0,0-3.26.78,2.37,2.37,0,0,0-1,1.95,2.84,2.84,0,0,0,1.3,2.24,48.62,48.62,0,0,0,7,3.6q5.49,2.48,7.63,5.31A11.5,11.5,0,0,1,695.69,173.52Z"/><circle class="cls-1" cx="17.91" cy="152.13" r="17.91" transform="translate(-135.27 153.17) rotate(-83.68)"/><circle class="cls-1" cx="172.94" cy="152.2" r="17.91" transform="translate(2.62 307.32) rotate(-83.68)"/><circle class="cls-1" cx="95.48" cy="17.91" r="17.91" transform="translate(67.17 110.84) rotate(-83.68)"/><path class="cls-1" d="M149.44,64.3a30.93,30.93,0,0,1,5.67,1.89,59.68,59.68,0,0,0-36.23-53.25,23.93,23.93,0,0,1-3.47,18.19,41.75,41.75,0,0,1,21.8,35.53A15.15,15.15,0,0,1,149.44,64.3Z"/><path class="cls-1" d="M136.8,76.87a9.39,9.39,0,0,1,11.3-7c2.49.59,5.54,1.69,6.69,3.76s.88,5,.28,7.54a9.39,9.39,0,0,1-18.27-4.34Z"/><path class="cls-1" d="M47.86,87.11A9.39,9.39,0,0,1,36.18,80.8c-.73-2.45-1.31-5.64-.09-7.67s3.87-3.26,6.39-4a9.39,9.39,0,0,1,5.38,18Z"/><path class="cls-1" d="M84.56,176.57a15.61,15.61,0,0,1-4.89-11.93,41.78,41.78,0,0,1-40.87-2.16,23.17,23.17,0,0,1-9.25,9.85,23.85,23.85,0,0,1-4.86,2.11A59.72,59.72,0,0,0,88.9,180,31,31,0,0,1,84.56,176.57Z"/><path class="cls-1" d="M101.76,158.36a9.39,9.39,0,0,1,.38,13.27c-1.76,1.86-4.24,4-6.6,3.92s-4.76-1.73-6.67-3.54a9.39,9.39,0,0,1,12.89-13.65Z"/><path class="cls-1" d="M71.56,17.89a24,24,0,0,1,.53-5A59.69,59.69,0,0,0,35.82,65.49a31,31,0,0,1,5-1.95,15.15,15.15,0,0,1,12.92,2,41.8,41.8,0,0,1,21.8-34.45A23.86,23.86,0,0,1,71.56,17.89Z"/><path class="cls-1" d="M6.26,131.93a23.24,23.24,0,0,1,13.16-3.07,41.76,41.76,0,0,1,19.37-37,15.18,15.18,0,0,1-8.19-9.44,31.48,31.48,0,0,1-1.2-5.81A59.71,59.71,0,0,0,2,135.09,22.86,22.86,0,0,1,6.26,131.93Z"/><path class="cls-1" d="M161.21,172.48a23.22,23.22,0,0,1-9.27-9.9,41.76,41.76,0,0,1-41,1.95,15.61,15.61,0,0,1-4.26,11.41,31.79,31.79,0,0,1-4.67,4.14,59.7,59.7,0,0,0,64-5.5A23.49,23.49,0,0,1,161.21,172.48Z"/><path class="cls-1" d="M161.5,76.7a28.85,28.85,0,0,1-.83,5.84,15.1,15.1,0,0,1-7.75,9.94,41.78,41.78,0,0,1,18.54,36.34A23.37,23.37,0,0,1,188.89,135,59.73,59.73,0,0,0,161.5,76.7Z"/></g></g></svg>