<svg xmlns="http://www.w3.org/2000/svg" width="48" height="7" viewBox="0 0 48 7">
  <g id="Gruppe_872" data-name="Gruppe 872" transform="translate(2912 1998)">
    <path id="Pfad_2381" data-name="Pfad 2381" d="M0,0H44a5,5,0,0,1-5,5H5A5,5,0,0,1,0,0Z" transform="translate(-2866 -1991) rotate(180)" fill="#fff"/>
    <path id="Rechteck_945" data-name="Rechteck 945" d="M0,0H48a0,0,0,0,1,0,0V0a7,7,0,0,1-7,7H7A7,7,0,0,1,0,0V0A0,0,0,0,1,0,0Z" transform="translate(-2864 -1991) rotate(180)" fill="#fff" opacity="0.5"/>
  </g>
</svg>
