<svg xmlns="http://www.w3.org/2000/svg" width="6.129" height="10.901" viewBox="0 0 6.129 10.901">
  <g id="Gruppe_848" data-name="Gruppe 848" transform="translate(-219.096 -315.566)">
    <path id="Differenzmenge_1" data-name="Differenzmenge 1" d="M19317.682,15163.927a.66.66,0,0,1-.48-.2.637.637,0,0,1-.2-.476v-2.366l1.926-1.926a.665.665,0,0,0,.2-.479.645.645,0,0,0-.2-.476l-1.926-1.927v-2.365a.675.675,0,0,1,1.158-.479l4.768,4.771a.633.633,0,0,1,.2.476.642.642,0,0,1-.2.479l-4.768,4.768A.656.656,0,0,1,19317.682,15163.927Z" transform="translate(-19097.906 -14837.459)" fill="#0f3535"/>
  </g>
</svg>
