<svg xmlns="http://www.w3.org/2000/svg" width="17" height="14" viewBox="0 0 17 14">
  <path id="Ausschluss_7" data-name="Ausschluss 7" d="M7.083,14h0a19.938,19.938,0,0,1-5.7-1.083A2.084,2.084,0,0,1,0,10.871,40.723,40.723,0,0,1,1.459,1.995,2.1,2.1,0,0,1,2,1.075,2.136,2.136,0,0,1,2.921.533,19.771,19.771,0,0,1,7.437,0a8.241,8.241,0,0,0-3.9,2.1c.018,0,.069-.024.147-.053a14.057,14.057,0,0,1,4.8-1H8.5a15.365,15.365,0,0,1,4.969,1.04A8.2,8.2,0,0,0,9.562,0a19.77,19.77,0,0,1,4.516.532A2.134,2.134,0,0,1,15,1.074a2.1,2.1,0,0,1,.538.92A40.751,40.751,0,0,1,17,10.871a2.085,2.085,0,0,1-1.379,2.047A19.928,19.928,0,0,1,9.917,14l-.354-1.75a6.624,6.624,0,0,0,4.25-1.75c-.016,0-.061.019-.129.042A17.665,17.665,0,0,1,8.5,11.55a16.744,16.744,0,0,1-5.184-1.008c-.068-.023-.113-.038-.129-.042a6.624,6.624,0,0,0,4.25,1.75L7.083,14Zm4.959-8.4a1.75,1.75,0,1,0,1.771,1.75A1.763,1.763,0,0,0,12.042,5.6Zm-7.084,0A1.75,1.75,0,1,0,6.729,7.35,1.762,1.762,0,0,0,4.958,5.6Z" fill="#0f3535"/>
</svg>
