<svg xmlns="http://www.w3.org/2000/svg" width="79" height="76" viewBox="0 0 79 76">
  <g id="Gruppe_1570" data-name="Gruppe 1570" transform="translate(5457 -1950)">
    <circle id="Ellipse_47" data-name="Ellipse 47" cx="38" cy="38" r="38" transform="translate(-5457 1950)" fill="#fff"/>
    <circle id="Ellipse_48" data-name="Ellipse 48" cx="7" cy="7" r="7" transform="translate(-5443 1951)" fill="#fff"/>
    <circle id="Ellipse_49" data-name="Ellipse 49" cx="7" cy="7" r="7" transform="translate(-5392 1981)" fill="#fff"/>
    <circle id="Ellipse_50" data-name="Ellipse 50" cx="7" cy="7" r="7" transform="translate(-5443 2010)" fill="#fff"/>
    <g id="Gruppe_1569" data-name="Gruppe 1569" transform="translate(-5454 1834)">
      <g id="Gruppe_1566" data-name="Gruppe 1566" transform="translate(6633.47 -2407.884)">
        <path id="Pfad_44" data-name="Pfad 44" d="M34.106,0A34.106,34.106,0,1,1,0,34.106,34.106,34.106,0,0,1,34.106,0Z" transform="translate(-6632.818 2527.806)" fill="#fff"/>
        <g id="Gruppe_23" data-name="Gruppe 23" transform="translate(-6633.493 2527.066)">
          <path id="Pfad_17" data-name="Pfad 17" d="M-6590.93,2712.975a3.9,3.9,0,0,0-.231.557,4.069,4.069,0,0,0-.2,1.388,4.087,4.087,0,0,0,3.743,4.005,4.313,4.313,0,0,0,.434.013,4.088,4.088,0,0,0,3.346-1.921A34.09,34.09,0,0,1-6590.93,2712.975Z" transform="translate(6605.47 -2650.737)" fill="#00b7c5"/>
          <path id="Pfad_18" data-name="Pfad 18" d="M-6583.3,2533.033a4.037,4.037,0,0,0-.455-.641,4.294,4.294,0,0,0-1.09-.872,3.956,3.956,0,0,0-1.611-.489,4.083,4.083,0,0,0-3.923,2.14,4.14,4.14,0,0,0-.045,3.859A33.933,33.933,0,0,1-6583.3,2533.033Z" transform="translate(6605.145 -2529.696)" fill="#00b7c5"/>
          <path id="Pfad_19" data-name="Pfad 19" d="M-6425.1,2620.718a4.049,4.049,0,0,0-3.376-1.965,34.152,34.152,0,0,1,.262,4.157,34.392,34.392,0,0,1-.252,4.072,4.029,4.029,0,0,0,2.01-.6,4.107,4.107,0,0,0,1.837-2.547A4.145,4.145,0,0,0-6425.1,2620.718Z" transform="translate(6497.112 -2588.059)" fill="#00b7c5"/>
          <path id="Pfad_20" data-name="Pfad 20" d="M-6598.623,2596.7q-1.279,0-2.568-.093a34.591,34.591,0,0,1-23.816-11.949,34.582,34.582,0,0,1-8.393-25.291,34.589,34.589,0,0,1,11.948-23.817,34.578,34.578,0,0,1,25.29-8.392,34.579,34.579,0,0,1,23.817,11.946,34.578,34.578,0,0,1,8.392,25.292,34.586,34.586,0,0,1-11.947,23.818A34.56,34.56,0,0,1-6598.623,2596.7Zm-.1-68.271a33.2,33.2,0,0,0-21.831,8.153,33.245,33.245,0,0,0-11.482,22.883,33.227,33.227,0,0,0,8.065,24.3,33.228,33.228,0,0,0,22.883,11.479,33.227,33.227,0,0,0,24.3-8.063,33.23,33.23,0,0,0,11.478-22.884,33.486,33.486,0,0,0-30.945-35.778h0C-6597.085,2528.461-6597.909,2528.431-6598.728,2528.431Z" transform="translate(6633.494 -2527.067)" fill="#00b7c5"/>
          <g id="Gruppe_22" data-name="Gruppe 22" transform="translate(14.179 19.17)">
            <g id="Gruppe_16" data-name="Gruppe 16" transform="translate(0.142)">
              <g id="Gruppe_9" data-name="Gruppe 9" transform="translate(0 2.433)">
                <path id="Pfad_21" data-name="Pfad 21" d="M-6587.812,2597.816a2.216,2.216,0,0,1-1.722-.762,2.8,2.8,0,0,1-.68-1.937v-.28a2.878,2.878,0,0,1,.68-1.96,2.1,2.1,0,0,1,1.642-.78,2.037,2.037,0,0,1,1.591.643,2.432,2.432,0,0,1,.582,1.711v.515h-3.891v.149a2.424,2.424,0,0,0,.5,1.553,1.577,1.577,0,0,0,1.3.63,2.624,2.624,0,0,0,.968-.159,1.9,1.9,0,0,0,.686-.451l.258.414a2.193,2.193,0,0,1-.783.514A3.021,3.021,0,0,1-6587.812,2597.816Zm-.084-5.2a1.448,1.448,0,0,0-1.133.515,2.2,2.2,0,0,0-.537,1.3l.01.026h3.229v-.152a1.752,1.752,0,0,0-.423-1.2A1.444,1.444,0,0,0-6587.9,2592.619Z" transform="translate(6590.383 -2591.93)" fill="#0f3535"/>
                <path id="Pfad_22" data-name="Pfad 22" d="M-6588.2,2597.652a2.36,2.36,0,0,1-1.794-.82,2.955,2.955,0,0,1-.724-2.047v-.279a3.053,3.053,0,0,1,.721-2.071,2.269,2.269,0,0,1,1.764-.836h0a2.218,2.218,0,0,1,1.72.7,2.635,2.635,0,0,1,.621,1.824v.683h-3.889a2.259,2.259,0,0,0,.461,1.431,1.4,1.4,0,0,0,1.163.567,2.453,2.453,0,0,0,.917-.148,1.749,1.749,0,0,0,.623-.413l.151-.153.441.705-.092.093a2.365,2.365,0,0,1-.842.557,3.122,3.122,0,0,1-1.191.211Zm-.032-5.72a1.919,1.919,0,0,0-1.511.723,2.712,2.712,0,0,0-.64,1.85v.279a2.626,2.626,0,0,0,.64,1.825,2.016,2.016,0,0,0,1.592.706h.007a2.782,2.782,0,0,0,1.064-.189,2.032,2.032,0,0,0,.631-.386l-.079-.126a2.125,2.125,0,0,1-.593.349,2.918,2.918,0,0,1-1.033.169,1.741,1.741,0,0,1-1.429-.7,2.594,2.594,0,0,1-.53-1.655v-.315h3.887v-.348a2.281,2.281,0,0,0-.535-1.6,1.867,1.867,0,0,0-1.47-.588Zm1.74,2.358H-6590l-.056-.141-.008-.063a2.389,2.389,0,0,1,.581-1.393,1.621,1.621,0,0,1,1.261-.575,1.623,1.623,0,0,1,1.272.541,1.936,1.936,0,0,1,.466,1.319Zm-3.229-.334h2.891a1.574,1.574,0,0,0-.379-1.076,1.289,1.289,0,0,0-1.022-.426h0a1.328,1.328,0,0,0-1.006.457A2.048,2.048,0,0,0-6589.718,2593.956Z" transform="translate(6590.715 -2591.598)" fill="#0f3535"/>
              </g>
              <g id="Gruppe_10" data-name="Gruppe 10" transform="translate(6.263 0.103)">
                <path id="Pfad_23" data-name="Pfad 23" d="M-6571.506,2592.633l.823-.065v-4.475l-.823-.066v-.454h1.435v4.995l.824.065v.448h-2.259Zm1.435-6.638h-.607v-.855h.607Z" transform="translate(6571.674 -2584.972)" fill="#0f3535"/>
                <path id="Pfad_24" data-name="Pfad 24" d="M-6569.413,2592.914h-2.595v-.771l.825-.066v-4.166l-.825-.065v-.776h1.769v5.007l.826.066Zm-2.26-.335h1.925v-.127l-.826-.065v-4.98h-1.1v.131l.826.065v4.784l-.826.065Zm1.434-6.75h-.94v-1.19h.94Zm-.605-.336h.271v-.519h-.271Z" transform="translate(6572.008 -2584.639)" fill="#0f3535"/>
              </g>
              <g id="Gruppe_11" data-name="Gruppe 11" transform="translate(10.141 2.434)">
                <path id="Pfad_25" data-name="Pfad 25" d="M-6559.9,2597.262l.822-.066v-4.473l-.822-.067v-.453h1.369l.054.962a1.973,1.973,0,0,1,.717-.787,2,2,0,0,1,1.064-.277,1.689,1.689,0,0,1,1.363.548,2.585,2.585,0,0,1,.47,1.708v2.841l.826.066v.448h-2.27v-.448l.823-.066v-2.841a2,2,0,0,0-.352-1.34,1.259,1.259,0,0,0-1.006-.392,1.585,1.585,0,0,0-1.048.337,1.905,1.905,0,0,0-.582.9v3.328l.826.066v.448h-2.269Z" transform="translate(6560.08 -2591.933)" fill="#0f3535"/>
                <path id="Pfad_26" data-name="Pfad 26" d="M-6554.209,2597.548h-2.6v-.77l.828-.066v-2.687a1.87,1.87,0,0,0-.312-1.23,1.13,1.13,0,0,0-.879-.336,1.407,1.407,0,0,0-.944.3,1.714,1.714,0,0,0-.519.792v3.149l.826.066v.77h-2.609l.021-.764.822-.065v-4.165l-.826-.066v-.775h1.7l.035.621a2.136,2.136,0,0,1,.491-.419,2.221,2.221,0,0,1,1.157-.3,1.859,1.859,0,0,1,1.487.608,2.779,2.779,0,0,1,.511,1.816v2.687l.822.066Zm-2.27-.337h1.938v-.124l-.826-.066v-3a2.449,2.449,0,0,0-.429-1.6,1.6,1.6,0,0,0-1.284-.489,1.811,1.811,0,0,0-.933.255,1.758,1.758,0,0,0-.554.547,2.172,2.172,0,0,1,.234-.235,1.789,1.789,0,0,1,1.163-.38,1.465,1.465,0,0,1,1.123.448,2.145,2.145,0,0,1,.395,1.453v3l-.826.066Zm-3.6-.007h1.929v-.126l-.825-.066.007-3.531c0-.02.012-.042.019-.063l-.082-1.38h-1.045v.131l.829.066v4.782l-.831.068Z" transform="translate(6560.424 -2591.601)" fill="#0f3535"/>
              </g>
              <g id="Gruppe_12" data-name="Gruppe 12" transform="translate(17.617)">
                <path id="Pfad_27" data-name="Pfad 27" d="M-6537.6,2587.87v-.5h.909v-.8a1.845,1.845,0,0,1,.415-1.283,1.478,1.478,0,0,1,1.166-.454,2.144,2.144,0,0,1,.336.026,3.212,3.212,0,0,1,.352.071l-.077.5a2.131,2.131,0,0,0-.251-.049,2.437,2.437,0,0,0-.3-.018.948.948,0,0,0-.766.315,1.323,1.323,0,0,0-.269.887v.8h1.314v.5h-1.3v4.5l.829.067v.447h-2.272v-.447l.824-.067v-4.5Z" transform="translate(6537.764 -2584.664)" fill="#0f3535"/>
                <path id="Pfad_28" data-name="Pfad 28" d="M-6535.4,2592.712h-2.606v-.77l.828-.065V2587.7h-.91v-.834h.91v-.635a2.016,2.016,0,0,1,.453-1.4,1.64,1.64,0,0,1,1.277-.508,2.109,2.109,0,0,1,.375.027,3.414,3.414,0,0,1,.371.075l.142.039-.124.834-.179-.044c-.081-.019-.155-.035-.235-.046a2.671,2.671,0,0,0-.277-.016.781.781,0,0,0-.639.26,1.176,1.176,0,0,0-.228.776v.635h1.314v.834h-1.3v4.173l.825.065Zm-2.272-.334h1.937v-.125l-.828-.067v-4.817h1.3v-.164h-1.313v-.97a1.5,1.5,0,0,1,.3-.995,1.114,1.114,0,0,1,.906-.375,2.175,2.175,0,0,1,.31.019l.09.013.026-.175c-.061-.012-.125-.024-.189-.034a1.887,1.887,0,0,0-.324-.023,1.3,1.3,0,0,0-1.029.4,1.709,1.709,0,0,0-.369,1.172v.97h-.907v.164h.907v4.817l-.827.067Z" transform="translate(6538.092 -2584.33)" fill="#0f3535"/>
              </g>
              <g id="Gruppe_13" data-name="Gruppe 13" transform="translate(22.148 2.431)">
                <path id="Pfad_29" data-name="Pfad 29" d="M-6520.291,2597.705c-.039-.187-.069-.348-.084-.484a2.782,2.782,0,0,1-.03-.413,2.4,2.4,0,0,1-.812.719,2.282,2.282,0,0,1-1.143.286,1.759,1.759,0,0,1-1.255-.418,1.466,1.466,0,0,1-.441-1.13,1.394,1.394,0,0,1,.655-1.211,3.112,3.112,0,0,1,1.779-.448h1.217v-.728a1.161,1.161,0,0,0-.377-.927,1.543,1.543,0,0,0-1.061-.338,2.718,2.718,0,0,0-.839.125,1.976,1.976,0,0,0-.636.338l-.047.738h-.5l0-1.057a3.117,3.117,0,0,1,.914-.479,3.4,3.4,0,0,1,1.136-.184,2.221,2.221,0,0,1,1.468.464,1.636,1.636,0,0,1,.553,1.328v2.708c0,.113,0,.221,0,.323s.018.2.034.3l.55.035v.449Zm-2.007-.433a2.216,2.216,0,0,0,1.169-.311,1.806,1.806,0,0,0,.722-.788v-1.1h-1.222a2.283,2.283,0,0,0-1.325.344,1.024,1.024,0,0,0-.5.868.913.913,0,0,0,.312.715A1.221,1.221,0,0,0-6522.3,2597.273Z" transform="translate(6524.226 -2591.924)" fill="#0f3535"/>
                <path id="Pfad_30" data-name="Pfad 30" d="M-6522.659,2597.647h-.039a1.921,1.921,0,0,1-1.363-.463,1.624,1.624,0,0,1-.5-1.252,1.568,1.568,0,0,1,.734-1.353,3.281,3.281,0,0,1,1.864-.473h1.055v-.562a1,1,0,0,0-.322-.8,1.414,1.414,0,0,0-.974-.293,2.533,2.533,0,0,0-.764.117,1.756,1.756,0,0,0-.522.265l-.058.82h-.827l0-1.309.066-.05a3.342,3.342,0,0,1,.964-.5,3.715,3.715,0,0,1,1.188-.192,2.38,2.38,0,0,1,1.572.5,1.794,1.794,0,0,1,.616,1.456v2.708c0,.107,0,.213.007.311,0,.055.005.107.012.158l.573.037v.771l-1.393,0-.027-.133c-.042-.2-.072-.361-.089-.5v-.01a2.57,2.57,0,0,1-.6.441A2.45,2.45,0,0,1-6522.659,2597.647Zm.7-3.207a2.975,2.975,0,0,0-1.683.418,1.243,1.243,0,0,0-.583,1.069,1.311,1.311,0,0,0,.392,1.012,1.632,1.632,0,0,0,1.169.374,2.143,2.143,0,0,0,1.032-.266,2.289,2.289,0,0,0,.759-.669l.3-.424v.521a2.9,2.9,0,0,0,.023.392,3.251,3.251,0,0,0,.057.337l.783,0v-.124l-.525-.033-.022-.132a2.734,2.734,0,0,1-.035-.323c-.008-.1-.008-.216-.008-.332v-2.708a1.459,1.459,0,0,0-.5-1.2,2.032,2.032,0,0,0-1.377-.425,3.317,3.317,0,0,0-1.061.176,2.965,2.965,0,0,0-.8.406l0,.8h.18l.045-.655.06-.045a2,2,0,0,1,.689-.368,3,3,0,0,1,.886-.134,1.717,1.717,0,0,1,1.171.379,1.349,1.349,0,0,1,.436,1.063v.887h-1.392Zm-.635,2.668a1.448,1.448,0,0,1-.993-.314,1.074,1.074,0,0,1-.364-.846,1.179,1.179,0,0,1,.569-1,2.445,2.445,0,0,1,1.419-.374h1.389l-.017,1.339a1.952,1.952,0,0,1-.787.863A2.383,2.383,0,0,1-6522.593,2597.107Zm.63-2.2a2.144,2.144,0,0,0-1.229.314.859.859,0,0,0-.423.73.731.731,0,0,0,.251.589,1.07,1.07,0,0,0,.737.23h0a1.936,1.936,0,0,0,1.076-.286,1.638,1.638,0,0,0,.642-.684v-.895Z" transform="translate(6524.556 -2591.591)" fill="#0f3535"/>
              </g>
              <g id="Gruppe_14" data-name="Gruppe 14" transform="translate(28.581 2.436)">
                <path id="Pfad_31" data-name="Pfad 31" d="M-6502.486,2597.308a1.731,1.731,0,0,0,1.067-.348,1.136,1.136,0,0,0,.464-.961h.539l.01.031a1.507,1.507,0,0,1-.608,1.278,2.264,2.264,0,0,1-1.472.516,2.1,2.1,0,0,1-1.737-.771,3.078,3.078,0,0,1-.618-1.982v-.215a3.054,3.054,0,0,1,.618-1.975,2.1,2.1,0,0,1,1.732-.773,2.807,2.807,0,0,1,1.162.238,2.3,2.3,0,0,1,.861.652l.027,1.2h-.518l-.1-.978a1.752,1.752,0,0,0-.609-.436,2.057,2.057,0,0,0-.826-.16,1.47,1.47,0,0,0-1.312.633,2.816,2.816,0,0,0-.423,1.6v.215a2.825,2.825,0,0,0,.421,1.608A1.47,1.47,0,0,0-6502.486,2597.308Z" transform="translate(6505.01 -2591.939)" fill="#0f3535"/>
                <path id="Pfad_32" data-name="Pfad 32" d="M-6502.786,2597.659a2.249,2.249,0,0,1-1.9-.834,3.253,3.253,0,0,1-.656-2.087v-.214a3.233,3.233,0,0,1,.656-2.08,2.313,2.313,0,0,1,1.894-.837,2.933,2.933,0,0,1,1.2.254,2.457,2.457,0,0,1,.922.7l.036.044.03,1.429h-.837l-.108-1.072a1.566,1.566,0,0,0-.509-.354,1.723,1.723,0,0,0-.758-.148,1.3,1.3,0,0,0-1.175.561,2.664,2.664,0,0,0-.4,1.5v.214a2.681,2.681,0,0,0,.392,1.515,1.3,1.3,0,0,0,1.173.555h.006a1.545,1.545,0,0,0,.967-.313.969.969,0,0,0,.4-.821l0-.173h.833l.057.191a1.675,1.675,0,0,1-.677,1.419A2.428,2.428,0,0,1-6502.786,2597.659Zm-.006-5.717a1.955,1.955,0,0,0-1.633.71,2.921,2.921,0,0,0-.58,1.872v.214a2.941,2.941,0,0,0,.58,1.879,1.922,1.922,0,0,0,1.607.708,2.117,2.117,0,0,0,1.364-.478,1.337,1.337,0,0,0,.548-1.013h-.217a1.328,1.328,0,0,1-.526.93,1.956,1.956,0,0,1-1.172.379h0a1.637,1.637,0,0,1-1.452-.7,3.044,3.044,0,0,1-.448-1.7v-.214a2.991,2.991,0,0,1,.453-1.689,1.666,1.666,0,0,1,1.487-.709,2.172,2.172,0,0,1,.854.174,1.948,1.948,0,0,1,.668.477l.035.042.087.881h.192l-.019-.972a2.134,2.134,0,0,0-.76-.561A2.616,2.616,0,0,0-6502.792,2591.941Z" transform="translate(6505.341 -2591.606)" fill="#0f3535"/>
              </g>
              <g id="Gruppe_15" data-name="Gruppe 15" transform="translate(34.694 0.109)">
                <path id="Pfad_33" data-name="Pfad 33" d="M-6486.582,2585.609v-.453h1.437v3.373a1.971,1.971,0,0,1,1.8-1.047,1.688,1.688,0,0,1,1.343.54,2.5,2.5,0,0,1,.466,1.674v2.882l.824.065v.448h-2.271v-.448l.826-.065v-2.89a1.89,1.89,0,0,0-.354-1.285,1.261,1.261,0,0,0-.975-.391,1.643,1.643,0,0,0-1.045.328,1.926,1.926,0,0,0-.621.875v3.365l.828.065v.448h-2.257v-.448l.826-.065v-6.909Z" transform="translate(6486.75 -2584.988)" fill="#0f3535"/>
                <path id="Pfad_34" data-name="Pfad 34" d="M-6484.49,2592.927h-2.593v-.771l.828-.067v-6.6l-.828-.062v-.776h1.77v3.016a2.134,2.134,0,0,1,1.639-.691h0a1.848,1.848,0,0,1,1.464.6,2.634,2.634,0,0,1,.508,1.786v2.726l.826.065v.771h-2.605v-.771l.822-.065v-2.735a1.747,1.747,0,0,0-.31-1.173,1.079,1.079,0,0,0-.85-.335,1.5,1.5,0,0,0-.944.295,1.718,1.718,0,0,0-.552.769v3.181l.825.067Zm-2.255-.337h1.92v-.124l-.825-.067,0-7.409h-1.1v.129l.825.062v7.218l-.825.067Zm3.6,0h1.937v-.125l-.826-.067v-3.036a2.315,2.315,0,0,0-.426-1.564,1.506,1.506,0,0,0-1.215-.483,1.8,1.8,0,0,0-1.589.853,2.134,2.134,0,0,1,.3-.292,1.828,1.828,0,0,1,1.157-.365,1.418,1.418,0,0,1,1.091.445,2.011,2.011,0,0,1,.4,1.4v3.044l-.824.067Z" transform="translate(6487.083 -2584.655)" fill="#0f3535"/>
              </g>
            </g>
            <path id="Pfad_35" data-name="Pfad 35" d="M-6550.368,2624.555h-39.741a.82.82,0,0,1-.633-.737h0a.822.822,0,0,1,.633-.737h39.741a.823.823,0,0,1,.637.737h0A.822.822,0,0,1-6550.368,2624.555Z" transform="translate(6590.874 -2610.108)" fill="#00b7c5"/>
            <g id="Gruppe_21" data-name="Gruppe 21" transform="translate(0 18.816)">
              <g id="Gruppe_17" data-name="Gruppe 17" transform="translate(0 0.272)">
                <path id="Pfad_36" data-name="Pfad 36" d="M-6590.64,2641.848h.721v11.6h-.721Z" transform="translate(6590.808 -2641.68)" fill="#0f3535"/>
                <path id="Pfad_37" data-name="Pfad 37" d="M-6590.088,2653.279h-1.05v-11.931h1.05Zm-.717-.336h.382v-11.26h-.382Z" transform="translate(6591.138 -2641.347)" fill="#0f3535"/>
              </g>
              <g id="Gruppe_18" data-name="Gruppe 18" transform="translate(5.634)">
                <path id="Pfad_38" data-name="Pfad 38" d="M-6562.772,2647.1a7.5,7.5,0,0,1-.377,2.378,5.633,5.633,0,0,1-1.074,1.933,5.053,5.053,0,0,1-1.729,1.293,6,6,0,0,1-4.655,0,5.016,5.016,0,0,1-1.74-1.293,5.675,5.675,0,0,1-1.078-1.933,7.745,7.745,0,0,1,0-4.757,5.725,5.725,0,0,1,1.078-1.933,5.011,5.011,0,0,1,1.74-1.291,5.981,5.981,0,0,1,4.655,0,5.042,5.042,0,0,1,1.729,1.291,5.73,5.73,0,0,1,1.08,1.933A7.5,7.5,0,0,1-6562.772,2647.1Zm-10.314,0a6.794,6.794,0,0,0,.322,2.112,5.266,5.266,0,0,0,.941,1.725,4.489,4.489,0,0,0,3.543,1.616,4.507,4.507,0,0,0,2.021-.438,4.582,4.582,0,0,0,1.5-1.178,5.151,5.151,0,0,0,.944-1.73,7.018,7.018,0,0,0,0-4.223,5.15,5.15,0,0,0-.944-1.729,4.585,4.585,0,0,0-1.5-1.179,4.5,4.5,0,0,0-2.021-.438,4.486,4.486,0,0,0-3.543,1.616,5.283,5.283,0,0,0-.941,1.729A6.764,6.764,0,0,0-6573.087,2647.1Z" transform="translate(6573.971 -2640.86)" fill="#0f3535"/>
                <path id="Pfad_39" data-name="Pfad 39" d="M-6568.618,2653.01a6.176,6.176,0,0,1-2.39-.479,5.192,5.192,0,0,1-1.8-1.337,5.841,5.841,0,0,1-1.114-1.991,7.9,7.9,0,0,1,0-4.862,5.837,5.837,0,0,1,1.114-1.988,5.167,5.167,0,0,1,1.8-1.337,6.184,6.184,0,0,1,4.785,0,5.172,5.172,0,0,1,1.794,1.335,5.859,5.859,0,0,1,1.111,1.99,7.456,7.456,0,0,1,.378,2.432,7.535,7.535,0,0,1-.383,2.431,5.8,5.8,0,0,1-1.106,1.989,5.188,5.188,0,0,1-1.788,1.335A6.174,6.174,0,0,1-6568.618,2653.01Zm0-12.14a5.835,5.835,0,0,0-2.262.455,4.845,4.845,0,0,0-1.677,1.247,5.472,5.472,0,0,0-1.049,1.874,7.52,7.52,0,0,0,0,4.654,5.481,5.481,0,0,0,1.049,1.876,4.9,4.9,0,0,0,1.68,1.248,5.863,5.863,0,0,0,4.521,0,4.906,4.906,0,0,0,1.668-1.248,5.556,5.556,0,0,0,1.045-1.875,7.314,7.314,0,0,0,.364-2.325v0a7.319,7.319,0,0,0-.362-2.326,5.435,5.435,0,0,0-1.05-1.875,4.837,4.837,0,0,0-1.67-1.247A5.8,5.8,0,0,0-6568.618,2640.87Zm-.1,11.524a4.62,4.62,0,0,1-3.566-1.678,5.335,5.335,0,0,1-.974-1.78,6.888,6.888,0,0,1-.33-2.162,6.92,6.92,0,0,1,.33-2.168,5.37,5.37,0,0,1,.974-1.784,4.617,4.617,0,0,1,3.672-1.677,4.673,4.673,0,0,1,2.092.454,4.715,4.715,0,0,1,1.557,1.223,5.246,5.246,0,0,1,.974,1.785,7.146,7.146,0,0,1,0,4.323,5.262,5.262,0,0,1-.974,1.787,4.739,4.739,0,0,1-1.557,1.222,4.679,4.679,0,0,1-2.1.456Zm.012-10.916a4.292,4.292,0,0,0-3.321,1.556,5.128,5.128,0,0,0-.912,1.673,6.59,6.59,0,0,0-.315,2.064v0a6.535,6.535,0,0,0,.315,2.058,5.056,5.056,0,0,0,.912,1.669,4.284,4.284,0,0,0,3.41,1.556,4.384,4.384,0,0,0,1.951-.422,4.358,4.358,0,0,0,1.446-1.134,4.989,4.989,0,0,0,.912-1.672,6.826,6.826,0,0,0,0-4.122,5.039,5.039,0,0,0-.912-1.673,4.38,4.38,0,0,0-1.446-1.133,4.351,4.351,0,0,0-1.946-.423Z" transform="translate(6574.309 -2640.535)" fill="#0f3535"/>
              </g>
              <g id="Gruppe_19" data-name="Gruppe 19" transform="translate(19.651 0.279)">
                <path id="Pfad_40" data-name="Pfad 40" d="M-6531.939,2642.481v-.615h8.884v.615h-4.091v10.975h-.719v-10.975Z" transform="translate(6532.108 -2641.7)" fill="#0f3535"/>
                <path id="Pfad_41" data-name="Pfad 41" d="M-6527.313,2653.292h-1.051v-10.978h-4.075v-.947h9.218v.947h-4.092Zm-.717-.336h.383v-10.974h4.092v-.28h-8.55v.28h4.075Z" transform="translate(6532.439 -2641.367)" fill="#0f3535"/>
              </g>
              <g id="Gruppe_20" data-name="Gruppe 20" transform="translate(30.16 0.272)">
                <path id="Pfad_42" data-name="Pfad 42" d="M-6499.545,2653.444h-.765l4.66-11.6h.78l4.581,11.6h-.762l-4.174-10.9h-.034Z" transform="translate(6500.556 -2641.68)" fill="#0f3535"/>
                <path id="Pfad_43" data-name="Pfad 43" d="M-6490.534,2653.279h-1.123l-4.079-10.646-4.189,10.646h-1.123l4.792-11.931h1.01Zm-.9-.336h.4l-4.447-11.26h-.552l-4.526,11.26h.4l4.287-10.9h.264Z" transform="translate(6501.048 -2641.347)" fill="#0f3535"/>
              </g>
            </g>
          </g>
        </g>
      </g>
    </g>
  </g>
</svg>
