<svg xmlns="http://www.w3.org/2000/svg" width="11.891" height="14.848" viewBox="0 0 11.891 14.848">
  <path id="Pfad_2374" data-name="Pfad 2374" d="M61.233,5.268a16.406,16.406,0,0,1-2.413-3.4A7.82,7.82,0,0,1,58.236.495L58.1,0l-.467.208a4.671,4.671,0,0,0-2.07,2.061,4.712,4.712,0,0,0-.433,2.086.672.672,0,0,1-1.146.478l-.871-.871-.3.413c-.031.043-.763,1.052-.9,1.254A5.946,5.946,0,1,0,62.831,8.9,5.651,5.651,0,0,0,61.233,5.268Zm-2.883,6.175a1.022,1.022,0,0,1-1.062-1.114,1.064,1.064,0,1,1,2.125,0A1.022,1.022,0,0,1,58.351,11.442Zm-.583-4.055h.965l-2.73,4h-.965Zm-3.41,1.057a1.064,1.064,0,1,1,2.125,0,1.064,1.064,0,1,1-2.125,0Z" transform="translate(-50.94)" fill="#fff"/>
</svg>
