<svg id="Capa_1" enable-background="new 0 0 512 512" height="512" viewBox="0 0 512 512" width="512" xmlns="http://www.w3.org/2000/svg"><g><g><path d="m475.72 504.39h-439.44c-13.72-104.55-15.76-209.1-6.12-313.66 1.68-18.26 3.72-36.53 6.12-54.8 56.79-5.24 113.59-8.45 170.38-9.61 32.89-.69 65.79-.69 98.68 0 56.79 1.16 113.59 4.37 170.38 9.61 2.4 18.27 4.44 36.54 6.12 54.8 9.64 104.56 7.6 209.11-6.12 313.66z" fill="#f5f0f0"/><path d="m481.84 190.73h-451.68c1.68-18.26 3.72-36.53 6.12-54.8 56.79-5.24 113.59-8.45 170.38-9.61h98.68c56.79 1.16 113.59 4.37 170.38 9.61 2.4 18.27 4.44 36.54 6.12 54.8z" fill="#e8ded8"/><path d="m487.703 98.383h-463.406c-9.277 0-16.797 7.52-16.797 16.797v30.819c0 9.277 7.52 16.797 16.797 16.797h463.406c9.277 0 16.797-7.52 16.797-16.797v-30.819c0-9.277-7.52-16.797-16.797-16.797z" fill="#a2c6fe"/><path d="m61.21 162.796h-36.91c-9.28 0-16.8-7.53-16.8-16.8v-30.82c0-9.28 7.52-16.8 16.8-16.8h36.91c-9.28 0-16.8 7.52-16.8 16.8v30.82c0 9.27 7.52 16.8 16.8 16.8z" fill="#7898d5"/><path d="m451.188 334.512c-.104-8.357-.283-16.713-.528-25.061-.509-17.552-1.319-35.075-2.431-52.533-.358-5.577-4.447-10.213-9.939-11.249-38.552-7.311-77.65-7.311-116.202 0-5.502 1.036-9.591 5.672-9.949 11.249-1.112 17.458-1.922 34.981-2.431 52.533-.245 8.347-.424 16.704-.528 25.061-.49 38.863.49 77.791 2.958 116.4.358 5.577 4.447 10.213 9.949 11.249 19.276 3.655 38.684 5.483 58.101 5.483 19.408 0 38.825-1.828 58.101-5.483 5.493-1.036 9.581-5.672 9.939-11.249 2.471-38.609 3.45-77.537 2.96-116.4z" fill="#bee5f0"/><path d="m97.253 504.39h-23.778c-4.263-82.357-3.724-165.541 1.634-247.691.383-5.88 4.436-10.716 9.822-11.72 55.151-10.233 111.088-10.233 166.239 0 5.386 1.005 9.438 5.84 9.822 11.72 5.358 82.15 5.897 165.334 1.634 247.691h-23.778z" fill="#bee5f0"/><path d="m271.66 504.39h-26.05c4.52-79.58 4.19-159.94-.98-239.39-50.86-7.72-102.3-7.72-153.16 0-5.17 79.45-5.5 159.81-.98 239.39h-26.05c-4.67-83.62-4.08-168.08 1.79-251.49.42-5.97 4.86-10.88 10.76-11.9 60.42-10.39 121.7-10.39 182.12 0 5.9 1.02 10.34 5.93 10.76 11.9 5.87 83.41 6.46 167.87 1.79 251.49z" fill="#a2c6fe"/><g><circle cx="351.018" cy="110.693" fill="#c0df8f" r="103.088"/><path d="m361.13 213.29c-3.32.32-6.7.49-10.11.49-56.93 0-103.09-46.15-103.09-103.09 0-56.93 46.16-103.08 103.09-103.08 3.41 0 6.79.17 10.11.49-52.2 5.08-92.98 49.07-92.98 102.59 0 53.53 40.78 97.52 92.98 102.6z" fill="#a2d162"/><g><path d="m395.534 89.017c-5.425-.233-10.85-.421-16.274-.568-3.279-.089-5.908-2.718-5.997-5.997-.147-5.425-.335-10.85-.568-16.274-.121-2.806-2.131-5.207-4.887-5.751-11.193-2.209-22.385-2.209-33.578 0-2.756.544-4.766 2.944-4.887 5.751-.233 5.425-.421 10.85-.568 16.274-.089 3.279-2.718 5.908-5.997 5.997-5.425.147-10.85.335-16.274.568-2.806.121-5.207 2.131-5.751 4.887-2.209 11.193-2.209 22.385 0 33.578.544 2.756 2.944 4.766 5.751 4.887 5.425.233 10.85.421 16.274.568 3.279.089 5.908 2.718 5.997 5.997.147 5.425.335 10.85.568 16.274.121 2.806 2.131 5.207 4.887 5.751 11.193 2.209 22.385 2.209 33.578 0 2.756-.544 4.766-2.944 4.887-5.751.233-5.425.421-10.85.568-16.274.089-3.279 2.718-5.908 5.997-5.997 5.425-.147 10.85-.335 16.274-.568 2.806-.121 5.207-2.131 5.751-4.887 2.209-11.193 2.209-22.385 0-33.578-.544-2.755-2.945-4.766-5.751-4.887z" fill="#f5f0f0"/></g></g><g fill="#a2c6fe"><path d="m455.55 333.32c-.11-8.87-.3-17.74-.56-26.6-.54-18.63-1.4-37.23-2.58-55.76-.38-5.92-4.72-10.84-10.55-11.94-40.92-7.76-82.42-7.76-123.34 0-5.84 1.1-10.18 6.02-10.56 11.94-1.18 18.53-2.04 37.13-2.58 55.76-.26 8.86-.45 17.73-.56 26.6-.52 41.25.52 82.57 3.14 123.55.38 5.92 4.72 10.84 10.56 11.94 20.46 3.88 41.06 5.82 61.67 5.82 20.6 0 41.21-1.94 61.67-5.82 5.83-1.1 10.17-6.02 10.55-11.94 2.62-40.98 3.66-82.3 3.14-123.55zm-122.26-70.48c31.16-4.86 62.63-4.86 93.79 0 .83 14.6 1.47 29.23 1.9 43.88h-97.58c.42-14.65 1.06-29.28 1.89-43.88zm93.79 182.14c-31.16 4.87-62.63 4.87-93.79 0-2.12-37.07-2.94-74.39-2.46-111.66h98.72c.47 37.27-.35 74.59-2.47 111.66z"/><path d="m204.108 419.758c-7.989 0-14.466-6.476-14.466-14.466v-27.933c0-7.989 6.476-14.466 14.466-14.466 7.989 0 14.466 6.476 14.466 14.466v27.933c0 7.989-6.477 14.466-14.466 14.466z"/></g></g><g><path d="m512 146v-30.82c0-13.399-10.9-24.3-24.3-24.3h-27.886c-2.386-13.14-7.125-25.777-14.064-37.267-2.142-3.546-6.751-4.684-10.298-2.542-3.545 2.142-4.684 6.752-2.542 10.297 8.963 14.839 13.7 31.895 13.7 49.323 0 52.708-42.882 95.59-95.591 95.59-52.708 0-95.589-42.882-95.589-95.59 0-52.703 42.881-95.58 95.589-95.58 23.805 0 46.615 8.805 64.229 24.793 3.066 2.783 7.81 2.555 10.595-.513 2.783-3.067 2.554-7.81-.513-10.594-20.38-18.499-46.77-28.687-74.31-28.687-54.218 0-99.445 39.216-108.809 90.77h-217.911c-13.399 0-24.3 10.901-24.3 24.3v30.82c0 13.399 10.901 24.3 24.3 24.3h.364c-11.509 108.424-10.467 218.206 3.099 326.59h-20.263c-4.142 0-7.5 3.358-7.5 7.5s3.358 7.5 7.5 7.5h497c4.143 0 7.5-3.358 7.5-7.5s-3.357-7.5-7.5-7.5h-20.263c13.566-108.383 14.609-218.165 3.1-326.59h.363c13.4 0 24.3-10.901 24.3-24.3zm-24.3-40.12c5.128 0 9.3 4.172 9.3 9.3v30.82c0 5.128-4.172 9.3-9.3 9.3h-35.498c6.043-13.653 9.408-28.745 9.408-44.61 0-1.607-.048-3.21-.117-4.81zm-472.7 40.12v-30.82c0-5.128 4.172-9.3 9.3-9.3h216.241c-.069 1.596-.111 3.198-.111 4.81 0 15.865 3.365 30.957 9.407 44.61h-225.537c-5.128 0-9.3-4.172-9.3-9.3zm58.711 107.426c.178-2.532 2.052-4.603 4.55-5.035 59.58-10.246 119.998-10.246 179.572-.001 2.504.433 4.378 2.504 4.556 5.036 5.671 80.582 6.383 162.451 2.151 243.463h-11.022c4.07-77.208 3.609-155.342-1.403-232.377-.229-3.516-2.875-6.399-6.359-6.928-51.562-7.827-103.849-7.827-155.411 0-3.484.529-6.129 3.411-6.359 6.927-2.777 42.641-4.176 86.061-4.156 129.051.002 4.141 3.359 7.497 7.5 7.497h.003c4.142-.002 7.499-3.361 7.497-7.503-.019-40.631 1.239-81.646 3.739-122.012 46.139-6.44 92.823-6.44 138.961 0 4.629 74.75 4.944 150.487.967 225.345h-140.884c-1.292-24.287-2.162-48.95-2.544-73.457-.064-4.142-3.469-7.467-7.616-7.382-4.142.064-7.447 3.474-7.382 7.616.38 24.426 1.244 49.005 2.522 73.223h-11.032c-4.232-81.011-3.521-162.88 2.15-243.463zm395.404 243.464h-189.556c4.219-81.366 3.488-163.585-2.208-244.516-.664-9.436-7.64-17.152-16.97-18.765-61.268-10.536-123.396-10.535-184.669.001-9.325 1.612-16.301 9.328-16.964 18.764-5.696 80.932-6.426 163.15-2.208 244.517h-13.656c-13.712-108.375-14.766-218.177-3.133-326.591h218.156c19.684 30.64 54.067 50.98 93.112 50.98s73.429-20.34 93.113-50.98h28.117c11.633 108.415 10.579 218.217-3.134 326.59z"/><path d="m395.856 81.524c-4.928-.212-10.012-.393-15.132-.538-.146-5.134-.326-10.218-.537-15.133-.272-6.312-4.767-11.57-10.929-12.785-12.104-2.388-24.378-2.388-36.482 0-6.162 1.216-10.655 6.474-10.928 12.786-.211 4.914-.392 9.998-.537 15.132-5.12.145-10.204.325-15.132.538-6.313.271-11.57 4.765-12.787 10.928-2.388 12.104-2.388 24.378 0 36.482 1.217 6.162 6.475 10.656 12.787 10.928 4.927.212 10.011.393 15.132.537.146 5.134.326 10.218.537 15.133.272 6.312 4.766 11.569 10.928 12.785 6.053 1.194 12.146 1.792 18.242 1.791 6.094 0 12.189-.597 18.24-1.791 6.162-1.216 10.656-6.473 10.929-12.786.211-4.914.392-9.998.537-15.132 5.12-.145 10.205-.325 15.132-.538 6.314-.272 11.572-4.766 12.786-10.928 2.389-12.104 2.389-24.379 0-36.48-1.214-6.162-6.472-10.657-12.786-10.929zm-1.719 43.398c-4.918.206-9.985.38-15.08.519-7.256.197-13.095 6.035-13.291 13.291-.139 5.109-.313 10.177-.519 15.081-9.448 1.727-19.01 1.727-28.458 0-.205-4.905-.38-9.972-.519-15.081-.196-7.256-6.034-13.094-13.291-13.291-5.095-.138-10.163-.313-15.081-.519-1.727-9.448-1.727-19.01 0-28.457 4.919-.206 9.986-.381 15.081-.519 7.257-.197 13.095-6.035 13.291-13.291.139-5.109.313-10.177.519-15.081 9.448-1.727 19.01-1.727 28.458 0 .205 4.905.38 9.972.519 15.081.196 7.257 6.034 13.095 13.291 13.292 5.095.138 10.162.312 15.08.519 1.727 9.446 1.727 19.007 0 28.456z"/><path d="m429.55 325.82h-98.72c-4.104 0-7.446 3.299-7.499 7.403-.481 37.347.35 75.091 2.472 112.185.201 3.528 2.838 6.436 6.329 6.982 15.943 2.491 31.998 3.737 48.053 3.737 16.056 0 32.11-1.246 48.054-3.737 3.491-.546 6.128-3.454 6.329-6.982 2.118-37.032 2.953-74.776 2.481-112.183-.052-4.105-3.394-7.405-7.499-7.405zm-9.62 112.624c-26.404 3.579-53.085 3.578-79.489 0-1.721-32.322-2.456-65.098-2.189-97.624h83.876c.258 32.573-.481 65.348-2.198 97.624z"/><path d="m331.4 314.22h97.58c2.027 0 3.969-.821 5.381-2.275 1.412-1.455 2.176-3.419 2.116-5.445-.425-14.432-1.067-29.265-1.909-44.085-.201-3.53-2.84-6.44-6.332-6.985-31.885-4.973-64.219-4.972-96.102 0-3.493.545-6.132 3.455-6.333 6.985-.85 14.943-1.488 29.778-1.898 44.091-.058 2.025.706 3.988 2.118 5.442 1.413 1.452 3.353 2.272 5.379 2.272zm9.042-44.843c26.402-3.57 53.087-3.569 79.485 0 .532 10.012.971 20.003 1.31 29.843h-82.099c.334-9.783.769-19.774 1.304-29.843z"/><path d="m443.258 231.651c-41.851-7.936-84.289-7.936-126.126-.002-9.207 1.734-16.057 9.477-16.657 18.834-1.179 18.528-2.051 37.375-2.592 56.017-.267 9.087-.455 18.079-.562 26.725-.523 41.446.538 83.207 3.154 124.125.6 9.353 7.449 17.096 16.646 18.828 20.824 3.949 42.043 5.951 63.067 5.951 21.025 0 42.245-2.002 63.062-5.95 9.199-1.736 16.044-9.479 16.644-18.831 2.616-40.916 3.678-82.677 3.154-124.122-.107-8.704-.297-17.696-.562-26.724-.541-18.644-1.413-37.491-2.593-56.023-.598-9.35-7.443-17.093-16.635-18.828zm1.668 224.739c-.161 2.509-1.993 4.586-4.463 5.052-19.904 3.775-40.184 5.689-60.273 5.689s-40.367-1.914-60.282-5.69c-2.467-.465-4.302-2.541-4.463-5.048-2.592-40.536-3.643-81.912-3.125-122.979.106-8.563.293-17.47.558-26.475.535-18.472 1.399-37.145 2.567-55.497.161-2.509 1.996-4.585 4.473-5.052 19.997-3.792 40.132-5.688 60.271-5.688s40.281 1.896 60.282 5.689c2.463.465 4.295 2.542 4.456 5.047 1.168 18.356 2.032 37.029 2.567 55.503.263 8.947.45 17.854.558 26.473v.001c.516 41.065-.534 82.44-3.126 122.975z"/><path d="m204.108 427.258c12.112 0 21.966-9.854 21.966-21.965v-27.934c0-12.112-9.854-21.966-21.966-21.966s-21.965 9.854-21.965 21.966v27.934c0 12.111 9.853 21.965 21.965 21.965zm-6.965-49.899c0-3.841 3.125-6.966 6.965-6.966s6.966 3.125 6.966 6.966v27.934c0 3.841-3.125 6.965-6.966 6.965s-6.965-3.125-6.965-6.965z"/></g></g></svg>