<svg id="twitter" xmlns="http://www.w3.org/2000/svg" xmlns:xlink="http://www.w3.org/1999/xlink" width="108.399" height="108.398" viewBox="0 0 108.399 108.398">
  <defs>
    <linearGradient id="linear-gradient" x1="0.332" y1="0.141" x2="0.585" y2="0.682" gradientUnits="objectBoundingBox">
      <stop offset="0" stop-color="#00c3ff"/>
      <stop offset="1" stop-color="#00b0ed"/>
    </linearGradient>
    <linearGradient id="linear-gradient-2" x1="0.738" y1="0.628" x2="-0.899" y2="-0.25" gradientUnits="objectBoundingBox">
      <stop offset="0" stop-color="#00b0ed" stop-opacity="0"/>
      <stop offset="1" stop-color="#00a2ce"/>
    </linearGradient>
    <linearGradient id="linear-gradient-3" x1="0.5" y1="0.27" x2="0.5" y2="0.926" xlink:href="#linear-gradient-2"/>
    <linearGradient id="linear-gradient-4" x1="0.946" y1="0.922" x2="0.342" y2="0.273" xlink:href="#linear-gradient-2"/>
  </defs>
  <path id="Pfad_57" data-name="Pfad 57" d="M89.01,106.543a327.414,327.414,0,0,1-69.622,0A19.738,19.738,0,0,1,1.856,89.009a327.4,327.4,0,0,1,0-69.621A19.738,19.738,0,0,1,19.389,1.856a327.4,327.4,0,0,1,69.621,0,19.738,19.738,0,0,1,17.534,17.533,327.4,327.4,0,0,1,0,69.621A19.737,19.737,0,0,1,89.01,106.543Zm0,0" transform="translate(0 0)" fill="url(#linear-gradient)"/>
  <path id="Pfad_58" data-name="Pfad 58" d="M123.377,46.039A17.514,17.514,0,0,0,107.819,30.48a290.641,290.641,0,0,0-61.78,0A17.517,17.517,0,0,0,30.48,46.039a290.632,290.632,0,0,0,0,61.779,17.515,17.515,0,0,0,15.559,15.559,290.527,290.527,0,0,0,61.779,0,17.514,17.514,0,0,0,15.559-15.559A290.525,290.525,0,0,0,123.377,46.039Zm0,0" transform="translate(-22.729 -22.729)" fill="url(#linear-gradient-2)"/>
  <path id="Pfad_59" data-name="Pfad 59" d="M7.672,409.8q.112,1.124.232,2.248a19.738,19.738,0,0,0,17.534,17.533,327.413,327.413,0,0,0,69.621,0,19.737,19.737,0,0,0,17.533-17.533q.12-1.124.232-2.248Zm0,0" transform="translate(-6.048 -323.042)" fill="url(#linear-gradient-3)"/>
  <path id="Pfad_60" data-name="Pfad 60" d="M185.092,150.262l-22.5-22.5a26.848,26.848,0,0,1-6.418,2.684,18.354,18.354,0,0,1-2.262.465,13.972,13.972,0,0,0-23.974,9.757c0,.279.007.554.026.829a13.482,13.482,0,0,0,.254,1.966A38.275,38.275,0,0,1,106.54,134h0l-4.709-4.71s-5.524,9.642,2.6,16.959a15.5,15.5,0,0,0,1.178,1.177l.1.113c-1.066-.072-4.272-.391-6.128-1.7a13.557,13.557,0,0,0,4.537,10.232l3.965,4a7.715,7.715,0,0,1-3.472-.331,13.353,13.353,0,0,0,4,6.284l5.554,5.583a28.754,28.754,0,0,1-16.843,3.75l33.694,32.922a327.771,327.771,0,0,0,34.712-1.856,19.738,19.738,0,0,0,17.534-17.533A327.906,327.906,0,0,0,185.092,150.262Zm0,0" transform="translate(-76.716 -99.872)" fill="url(#linear-gradient-4)"/>
  <path id="Pfad_61" data-name="Pfad 61" d="M164.508,133.189a25.272,25.272,0,0,1-7.208,2c-.01-.058-.02-.113-.03-.169a13.412,13.412,0,0,0,5.318-7.259,26.849,26.849,0,0,1-6.418,2.684,18.517,18.517,0,0,1-2.262.465,13.972,13.972,0,0,0-23.974,9.757c0,.278.007.554.026.828a13.473,13.473,0,0,0,.254,1.966c-3.735-.055-17.216-1.2-28.387-14.178,0,0-6.221,10.854,4.238,18.268,0,0-4.238-.132-6.487-1.721,0,0-.662,10.458,11.384,13.766,0,0-4.235,1.06-6.355.133,0,0,2.119,9,12.709,9.665a27.84,27.84,0,0,1-20,5.953,39.485,39.485,0,0,0,60.564-33.379q0-.408-.008-.816c.006-.161.008-.322.008-.485,0-.113,0-.227,0-.34A24.7,24.7,0,0,0,164.508,133.189Zm0,0" transform="translate(-76.713 -99.872)" fill="#fff"/>
</svg>
