<svg xmlns="http://www.w3.org/2000/svg" width="18.419" height="15.009" viewBox="0 0 18.419 15.009">
  <path id="Pfad_2375" data-name="Pfad 2375" d="M115.736,128.475a6.928,6.928,0,0,1-1.976.549l-.008-.046a3.677,3.677,0,0,0,1.458-1.99,7.36,7.36,0,0,1-1.759.736,5.076,5.076,0,0,1-.62.127,3.83,3.83,0,0,0-6.572,2.675c0,.076,0,.152.007.227a3.694,3.694,0,0,0,.07.539,10.706,10.706,0,0,1-7.782-3.887,3.788,3.788,0,0,0,1.162,5.008,3.994,3.994,0,0,1-1.778-.472,3.831,3.831,0,0,0,3.121,3.774,3.624,3.624,0,0,1-1.742.036A3.694,3.694,0,0,0,102.8,138.4a7.632,7.632,0,0,1-5.482,1.632,10.824,10.824,0,0,0,16.6-9.15q0-.112,0-.224c0-.044,0-.088,0-.133s0-.062,0-.093A6.772,6.772,0,0,0,115.736,128.475Zm0,0" transform="translate(-97.316 -126.695)" fill="#0f3535"/>
</svg>
